<?xml version="1.0" encoding="UTF-8" standalone="no"?>
<!DOCTYPE svg PUBLIC "-//W3C//DTD SVG 1.1//EN" "http://www.w3.org/Graphics/SVG/1.1/DTD/svg11.dtd">
<svg width="100%" height="100%" viewBox="0 0 1920 900" version="1.1" xmlns="http://www.w3.org/2000/svg" xmlns:xlink="http://www.w3.org/1999/xlink" xml:space="preserve" xmlns:serif="http://www.serif.com/" style="fill-rule:evenodd;clip-rule:evenodd;stroke-linejoin:round;stroke-miterlimit:2;">
    <g transform="matrix(9.93811,0,0,9.93811,-3888.53,-1003.95)">
        <path d="M492.4,104.68C497.15,102.28 503.57,104.59 505.2,109.78C507.81,117.9 503.4,127.24 496.1,131.3C492.72,133.18 488.09,133.61 484.96,131.04C482.51,129.19 481.28,126.12 481.17,123.11C480.73,115.49 485.36,107.72 492.4,104.68Z" style="fill:rgb(21,65,29);fill-opacity:0.14;fill-rule:nonzero;"/>
    </g>
    <g transform="matrix(9.93811,0,0,9.93811,-3888.53,-1003.95)">
        <path d="M463.49,111.66C467.51,110.02 472.5,111.45 474.84,115.17C479.8,122.93 476.65,134.45 468.81,139.08C464.76,141.64 458.88,140.76 456.12,136.72C450.37,128.55 454.32,115.51 463.49,111.66Z" style="fill:rgb(21,65,29);fill-opacity:0.14;fill-rule:nonzero;"/>
    </g>
    <g transform="matrix(9.93811,0,0,9.93811,-3888.53,-1003.95)">
        <path d="M513.37,123.43C517.62,121.86 523.16,122.14 526.24,125.84C529.21,129.36 528.59,134.57 526.55,138.4C523.02,144.94 515.52,149.89 507.91,148.61C503.74,147.99 500.34,144.13 500.49,139.87C500.52,132.32 506.51,125.86 513.37,123.43Z" style="fill:rgb(21,65,29);fill-opacity:0.14;fill-rule:nonzero;"/>
    </g>
    <g transform="matrix(9.93811,0,0,9.93811,-3888.53,-1003.95)">
        <path d="M481.43,138.57C489.14,135.92 498.08,142.91 497.32,151.02C497.34,156.73 493.34,161.4 492.87,166.98C493.16,170.68 494.51,174.36 493.69,178.09C492.7,182.91 489.15,187.55 484.19,188.65C478.11,189.8 471.94,186.33 468.64,181.33C466.98,179.07 465.81,176.3 463.4,174.71C459.99,172.73 455.9,171.92 452.94,169.17C449.03,165.78 446.26,160.26 448,155.07C450.2,148.63 457.37,144.97 463.95,145.73C470.81,146.51 475.13,139.89 481.43,138.57Z" style="fill:rgb(21,65,29);fill-opacity:0.14;fill-rule:nonzero;"/>
    </g>
    <g transform="matrix(9.93811,0,0,9.93811,-3888.53,-1003.95)">
        <path d="M509.31,153.47C515.43,150.94 524.6,152.79 526.29,160.05C527.82,170.32 516.47,178.31 507.01,177.04C502.33,176.6 497.82,172.9 497.71,167.97C497.58,161.16 503.21,155.58 509.31,153.47Z" style="fill:rgb(21,65,29);fill-opacity:0.14;fill-rule:nonzero;"/>
    </g>
</svg>
